<svg width="158" height="118" viewBox="0 0 158 118" fill="none" xmlns="http://www.w3.org/2000/svg">
<g clip-path="url(#clip0_5_408)">
<path d="M138.54 60.416C138.54 62.8744 136.282 64.6788 133.174 64.6788C130.12 64.6788 127.73 62.8104 127.73 60.416C127.73 57.9085 129.988 56.1484 133.095 56.1484C136.15 56.1484 138.54 58.0216 138.54 60.416ZM44.3651 55.8927C43.5415 55.8716 42.723 55.9975 41.9776 56.2601C41.2323 56.5226 40.5815 56.9141 40.0793 57.4021C39.0732 58.4518 38.6659 59.7568 38.947 61.0306L48.6838 58.0118C48.323 57.3807 47.7206 56.8434 46.9523 56.4672C46.1839 56.0911 45.2838 55.8929 44.3651 55.8976V55.8927ZM90.2048 56.1484C87.0975 56.1484 84.8328 57.9085 84.8328 60.416C84.8328 62.8055 87.2292 64.6788 90.2838 64.6788C93.3912 64.6788 95.6493 62.8694 95.6493 60.416C95.6493 58.0216 93.2595 56.1484 90.2048 56.1484ZM158 39.3186V78.6814H0V39.3186H158ZM32.9825 64.1625H20.3293V48.3063H14.6808V67.9877H32.9825V64.1674V64.1625ZM40.4678 63.7004L54.7075 59.2901C54.4531 57.7358 53.6078 56.2685 52.2717 55.0618C50.402 53.4393 47.637 52.5789 44.2663 52.5789C38.1372 52.5789 33.5158 55.9517 33.5158 60.4111C33.5158 64.9836 38.1504 68.2434 44.8786 68.2434C48.6442 68.2434 52.5021 66.906 54.3059 65.3474L50.7838 63.3267C48.4336 64.6247 47.0972 64.9295 44.9576 64.9295C43.0353 64.9295 41.5342 64.487 40.4678 63.7004ZM77.1369 58.5919C77.1369 55.106 73.7992 52.5789 68.8946 52.5789C67.6174 52.5828 66.3581 52.8035 65.2119 53.2242C64.0657 53.645 63.0626 54.2548 62.2783 55.0077V52.8345H56.7088V67.9828H62.2783V59.3639C62.2783 57.8102 63.8913 56.1631 66.8735 56.1631C69.1777 56.1631 71.5608 57.3579 71.5608 59.3639V67.9828H77.1369V58.5919ZM101.146 60.4111C101.146 55.9664 96.3734 52.5789 90.2838 52.5789C84.1416 52.5789 79.3357 56.0205 79.3357 60.4111C79.3357 64.8509 84.1152 68.2384 90.2048 68.2384C96.3405 68.2384 101.146 64.7968 101.146 60.4111ZM114.748 67.9828L123.095 52.8345H116.729L111.693 63.1546L106.657 52.8296H100.297L108.645 67.9779H114.748V67.9828ZM144.037 60.4111C144.037 55.9664 139.264 52.5789 133.174 52.5789C127.039 52.5789 122.233 56.0205 122.233 60.4111C122.233 64.8509 127.006 68.2384 133.095 68.2384C139.231 68.2384 144.037 64.7968 144.037 60.4111Z" fill="#ACBAC4"/>
</g>
<defs>
<clipPath id="clip0_5_408">
<rect width="158" height="118" fill="white"/>
</clipPath>
</defs>
</svg>
