<svg width="124" height="95" viewBox="0 0 124 95" fill="none" xmlns="http://www.w3.org/2000/svg">
<g clip-path="url(#clip0_5_411)">
<path d="M105.503 29.074V65.4115H114.033V29.074H105.503ZM0 29.5886V36.4642H8.9745V29.5846L0 29.5886ZM50.53 30.9819V54.9417C50.53 56.9723 50.7573 58.6823 51.2017 60.0558C51.6512 61.4017 52.4158 62.5021 53.475 63.3333C54.5238 64.1646 55.9292 64.7544 57.6238 65.1186C59.3495 65.4867 61.5195 65.6569 64.108 65.6569H65.224V59.5888C63.984 59.5888 62.9248 59.5413 62.1602 59.4423C61.4092 59.3878 60.7019 59.1474 60.1452 58.7575C59.6553 58.3417 59.3434 57.8209 59.2513 57.2652C59.1084 56.4705 59.0445 55.6686 59.0602 54.8665V46.2294H65.224V40.6244H59.0602V30.9819H50.53ZM32.4208 40.1336C30.3748 40.1336 28.4942 40.4502 26.8305 41.0875C25.141 41.7248 23.7305 42.6075 22.5835 43.7317L22.134 44.1948V40.6244H13.733V65.3877H22.2012V52.6656C22.2942 50.3381 23.0278 48.6281 24.4383 47.5238C25.9367 46.3481 27.7553 45.7623 29.8323 45.7623C32.2917 45.7623 34.1775 46.3521 35.4227 47.4763C36.6368 48.6004 37.2775 50.1917 37.2775 52.2263V65.3838H45.8697V51.3396C45.9007 47.8167 44.6865 45.0261 42.3253 43.0667C39.959 41.1073 36.642 40.1296 32.4208 40.1296V40.1336ZM84.4233 40.1573C82.2136 40.1506 80.0238 40.4778 77.9793 41.1204C75.9349 41.7629 74.0759 42.7081 72.509 43.9019C71.0107 45.0498 69.7965 46.4233 68.9337 47.9908C68.0436 49.5823 67.5966 51.2985 67.6213 53.0298C67.6213 54.819 68.0347 56.5052 68.8665 58.0727C69.6983 59.6363 70.8815 61.0098 72.3488 62.1577C73.8162 63.3056 75.64 64.2398 77.748 64.9008C79.856 65.5856 82.1913 65.93 84.6817 65.93C91.8995 65.93 96.3687 63.4086 99.0553 61.0613L92.9225 57.4829C91.6412 58.6586 88.5773 60.2498 84.7437 60.2498C82.3463 60.2498 80.3675 59.8342 78.864 58.9792C77.3593 58.1296 76.2784 56.9119 75.8002 55.5275L75.702 55.3058H101.096V52.9823C101.096 51.1971 100.683 49.5306 99.882 47.9671C99.0772 46.4565 97.92 45.0709 96.4668 43.8781C94.9753 42.6966 93.1811 41.764 91.1968 41.139C89.0479 40.4666 86.7443 40.1327 84.4233 40.1573V40.1573ZM0.222167 40.6244V65.3877H8.75233V40.6244H0.222167ZM84.3252 45.7148C90.1738 45.7148 92.9225 48.8696 92.9225 50.6825L75.7692 50.7063C75.7692 48.8934 78.4817 45.7386 84.3252 45.7148ZM120.869 60.8119C120.458 60.8119 120.051 60.8739 119.671 60.9945C119.291 61.115 118.946 61.2917 118.655 61.5145C118.364 61.7372 118.134 62.0016 117.976 62.2927C117.819 62.5837 117.738 62.8956 117.738 63.2106C117.738 63.5256 117.819 63.8376 117.976 64.1286C118.134 64.4196 118.364 64.6841 118.655 64.9068C118.946 65.1296 119.291 65.3063 119.671 65.4268C120.051 65.5473 120.458 65.6094 120.869 65.6094C121.699 65.6094 122.496 65.3567 123.083 64.9068C123.67 64.457 124 63.8468 124 63.2106C124 62.5745 123.67 61.9643 123.083 61.5145C122.496 61.0646 121.699 60.8119 120.869 60.8119ZM120.828 61.2275C120.831 61.2275 120.835 61.2275 120.838 61.2275C121.178 61.2275 121.514 61.2788 121.828 61.3785C122.142 61.4783 122.427 61.6244 122.667 61.8086C122.906 61.9928 123.097 62.2115 123.226 62.452C123.356 62.6926 123.422 62.9504 123.421 63.2106C123.421 63.4705 123.355 63.7279 123.225 63.968C123.095 64.2082 122.905 64.4263 122.665 64.6101C122.425 64.7939 122.14 64.9397 121.827 65.0392C121.513 65.1386 121.177 65.1898 120.838 65.1898C120.153 65.1898 119.496 64.9813 119.011 64.6101C118.527 64.239 118.255 63.7355 118.255 63.2106C118.255 62.6871 118.525 62.1849 119.008 61.814C119.49 61.443 120.144 61.2336 120.828 61.2315V61.2275ZM119.624 61.8411V64.6079H120.296V63.4798H120.776L121.67 64.6079H122.372L121.442 63.4323C121.673 63.4156 121.889 63.3371 122.052 63.2106C122.207 63.0919 122.31 62.9177 122.31 62.6723C122.31 62.4031 122.207 62.2092 121.985 62.0627C121.794 61.9123 121.442 61.8411 121.029 61.8411H119.624ZM120.296 62.2329H121.091C121.189 62.2329 121.282 62.2567 121.38 62.2804C121.463 62.3006 121.531 62.3447 121.572 62.4031C121.639 62.4546 121.634 62.5258 121.634 62.6248C121.635 62.7001 121.614 62.7745 121.572 62.8425C121.516 62.8904 121.452 62.9318 121.38 62.9652C121.282 62.989 121.189 63.0167 121.091 63.0167H120.296V62.2329Z" fill="#BFBFBF"/>
</g>
<defs>
<clipPath id="clip0_5_411">
<rect width="124" height="95" fill="white"/>
</clipPath>
</defs>
</svg>
